<svg width="24" height="24" viewBox="0 0 24 24" fill="none" xmlns="http://www.w3.org/2000/svg">
<path d="M20.4414 13.8468V6.00901C20.4414 3.8018 18.6397 2 16.4325 2H8.00902C5.80181 2 4 3.8018 4 6.00901V17.991C4 20.1982 5.80181 22 8.00902 22H16.4325C18.6397 22 20.4414 20.1982 20.4414 17.991V16.1441L18.8198 17.7658V18.036C18.8198 19.3423 17.7388 20.4234 16.4325 20.4234H8.00902C6.70271 20.4234 5.62164 19.3423 5.62164 18.036V6.05405C5.62164 4.74775 6.70271 3.66667 8.00902 3.66667H16.4325C17.7388 3.66667 18.8198 4.74775 18.8198 6.05405V15.5135L20.4414 13.8468Z" fill="black"/>
<path d="M12.1532 5.46846C13.0737 5.46846 13.8198 4.72227 13.8198 3.8018C13.8198 2.88132 13.0737 2.13513 12.1532 2.13513C11.2327 2.13513 10.4865 2.88132 10.4865 3.8018C10.4865 4.72227 11.2327 5.46846 12.1532 5.46846Z" fill="black"/>
<path d="M14 7.27026H7.87386C7.42606 7.27026 7.06305 7.63328 7.06305 8.08108C7.06305 8.52888 7.42606 8.89189 7.87386 8.89189H14C14.4478 8.89189 14.8108 8.52888 14.8108 8.08108C14.8108 7.63328 14.4478 7.27026 14 7.27026Z" fill="black"/>
<path d="M15.4414 10.7838H7.87386C7.42606 10.7838 7.06305 11.1468 7.06305 11.5946C7.06305 12.0424 7.42606 12.4054 7.87386 12.4054H15.4414C15.8892 12.4054 16.2523 12.0424 16.2523 11.5946C16.2523 11.1468 15.8892 10.7838 15.4414 10.7838Z" fill="black"/>
<path d="M16.3738 17.9596C15.9833 18.3501 15.3501 18.3501 14.9596 17.9596L13.8374 16.8375C13.5274 16.5275 13.5225 16.0264 13.8264 15.7104C14.1426 15.3814 14.6688 15.3809 14.9857 15.7092L15.6667 16.4145L21.2748 10.8063C21.5858 10.4954 22.0899 10.4954 22.4009 10.8063C22.7119 11.1173 22.7119 11.6215 22.4009 11.9325L16.3738 17.9596Z" fill="black"/>
<path d="M8.86488 17.2252H7.87386C7.42606 17.2252 7.06305 17.5882 7.06305 18.036C7.06305 18.4838 7.42606 18.8468 7.87386 18.8468H8.86488C9.31267 18.8468 9.67568 18.4838 9.67568 18.036C9.67568 17.5882 9.31267 17.2252 8.86488 17.2252Z" fill="black"/>
</svg>
