<svg width="24" height="24" viewBox="0 0 24 24" fill="none" xmlns="http://www.w3.org/2000/svg">
<path d="M16.7793 19.4324C16.3514 20.0743 15.6239 20.4595 14.8536 20.4595H6.85135C5.61036 20.4595 4.58336 19.4324 4.58336 18.1914V6.80856C4.58336 5.56757 5.61036 4.54054 6.85135 4.54054H14.8536C15.7095 4.54054 16.5225 5.05406 16.9077 5.82433C17.25 5.78153 17.5496 5.73874 17.8919 5.73874C18.1059 5.73874 18.3199 5.73874 18.491 5.78153C18.0203 4.15541 16.5226 3 14.8109 3H6.80857C4.71172 3 3 4.71171 3 6.80856V18.1914C3 20.2883 4.71172 22 6.80857 22H14.8109C16.3942 22 17.8491 21.0158 18.3626 19.518C18.1915 19.518 18.0203 19.518 17.8491 19.518C17.5496 19.518 17.1644 19.4752 16.7793 19.4324Z" fill="black"/>
<path d="M10.7883 6.33782C11.6628 6.33782 12.3716 5.62893 12.3716 4.75448C12.3716 3.88003 11.6628 3.17114 10.7883 3.17114C9.91387 3.17114 9.20496 3.88003 9.20496 4.75448C9.20496 5.62893 9.91387 6.33782 10.7883 6.33782Z" fill="black"/>
<path d="M17.8919 18.1483C14.8536 18.1483 12.3716 15.6663 12.3716 12.6281C12.3716 9.58977 14.8536 7.10779 17.8919 7.10779C20.9302 7.10779 23.4122 9.58977 23.4122 12.6281C23.4122 15.6663 20.9302 18.1483 17.8919 18.1483ZM17.8919 8.64833C15.6667 8.64833 13.9122 10.4456 13.9122 12.6281C13.9122 14.8533 15.7095 16.6506 17.8919 16.6506C20.1171 16.6506 21.8717 14.8533 21.8717 12.6709C21.8717 10.4456 20.1171 8.64833 17.8919 8.64833Z" fill="black"/>
<path d="M10.5744 8.04944H6.76581C6.3404 8.04944 5.99554 8.3943 5.99554 8.8197C5.99554 9.24511 6.3404 9.58997 6.76581 9.58997H10.5744C10.9998 9.58997 11.3446 9.24511 11.3446 8.8197C11.3446 8.3943 10.9998 8.04944 10.5744 8.04944Z" fill="black"/>
<path d="M9.24781 11.2164H6.76582C6.34041 11.2164 5.99554 11.5612 5.99554 11.9866C5.99554 12.412 6.34041 12.7569 6.76582 12.7569H9.24781C9.67322 12.7569 10.0181 12.412 10.0181 11.9866C10.0181 11.5612 9.67321 11.2164 9.24781 11.2164Z" fill="black"/>
<path d="M11.3447 17.5069H6.76582C6.34041 17.5069 5.99554 17.8518 5.99554 18.2772C5.99554 18.7026 6.34041 19.0475 6.76582 19.0475H11.3447C11.7701 19.0475 12.1149 18.7026 12.1149 18.2772C12.1149 17.8518 11.7701 17.5069 11.3447 17.5069Z" fill="black"/>
<path d="M8.43473 14.3397H6.76582C6.34041 14.3397 5.99554 14.6846 5.99554 15.11C5.99554 15.5354 6.34041 15.8803 6.76582 15.8803H8.43473C8.86014 15.8803 9.205 15.5354 9.205 15.11C9.205 14.6846 8.86014 14.3397 8.43473 14.3397Z" fill="black"/>
<path d="M18.8333 12.7839C18.8333 13.3362 18.3856 13.7839 17.8333 13.7839H17.143C16.7294 13.7839 16.3942 13.4486 16.3942 13.035C16.3942 12.6214 16.7294 12.2861 17.143 12.2861H17.2928V10.6172C17.2928 10.1918 17.6377 9.84692 18.0631 9.84692C18.4885 9.84692 18.8333 10.1918 18.8333 10.6172V12.7839Z" fill="black"/>
</svg>
