<svg width="24" height="24" viewBox="0 0 24 24" fill="none" xmlns="http://www.w3.org/2000/svg">
<path fill-rule="evenodd" clip-rule="evenodd" d="M15.0773 7.36298C15.1069 7.01908 15.4097 6.76429 15.7536 6.79391C17.3469 6.93111 18.5948 7.42106 19.4228 8.44155C20.2369 9.44479 20.55 10.8469 20.55 12.5916V12.6999C20.55 14.6242 20.1685 16.1341 19.1555 17.1471C18.1424 18.1601 16.6326 18.5416 14.7083 18.5416H9.28332C7.359 18.5416 5.84919 18.1601 4.83617 17.1471C3.82314 16.1341 3.44165 14.6242 3.44165 12.6999V12.5916C3.44165 10.8595 3.75057 9.4659 4.55152 8.46471C5.36693 7.44546 6.59659 6.94902 8.16697 6.80263C8.51066 6.77059 8.81525 7.02324 8.84728 7.36692C8.87932 7.71061 8.62668 8.0152 8.28299 8.04724C6.90337 8.17585 6.05387 8.58775 5.52761 9.24558C4.98689 9.92147 4.69165 10.9737 4.69165 12.5916V12.6999C4.69165 14.5006 5.05599 15.5991 5.72005 16.2632C6.38411 16.9273 7.48263 17.2916 9.28332 17.2916H14.7083C16.509 17.2916 17.6075 16.9273 18.2716 16.2632C18.9356 15.5991 19.3 14.5006 19.3 12.6999V12.5916C19.3 10.9613 19.0006 9.90508 18.4522 9.22915C17.9177 8.57048 17.0531 8.16043 15.6464 8.0393C15.3025 8.00968 15.0477 7.70689 15.0773 7.36298Z" fill="black"/>
<path fill-rule="evenodd" clip-rule="evenodd" d="M12 1.04175C12.3452 1.04175 12.625 1.32157 12.625 1.66675V12.4001C12.625 12.7453 12.3452 13.0251 12 13.0251C11.6548 13.0251 11.375 12.7453 11.375 12.4001V1.66675C11.375 1.32157 11.6548 1.04175 12 1.04175Z" fill="black"/>
<path fill-rule="evenodd" clip-rule="evenodd" d="M8.76643 10.0997C9.01051 9.85561 9.40624 9.85561 9.65032 10.0997L12 12.4494L14.3498 10.0997C14.5938 9.85561 14.9896 9.85561 15.2336 10.0997C15.4777 10.3438 15.4777 10.7395 15.2336 10.9836L12.442 13.7752C12.1979 14.0193 11.8022 14.0193 11.5581 13.7752L8.76643 10.9836C8.52235 10.7395 8.52235 10.3438 8.76643 10.0997Z" fill="black"/>
</svg>
