<svg width="24" height="24" viewBox="0 0 24 24" fill="none" xmlns="http://www.w3.org/2000/svg">
<path d="M16.4989 22H8.04509C5.81801 22 4 20.1982 4 17.991V6.00901C4 3.80181 5.81801 2 8.04509 2H16.4989C18.7259 2 20.544 3.80181 20.544 6.00901V17.991C20.544 20.1982 18.7259 22 16.4989 22ZM8.04509 3.62162C6.72702 3.62162 5.63621 4.70271 5.63621 6.00901V17.991C5.63621 19.2973 6.72702 20.3784 8.04509 20.3784H16.4989C17.8169 20.3784 18.9077 19.2973 18.9077 17.991V6.00901C18.9077 4.70271 17.8169 3.62162 16.4989 3.62162H8.04509Z" fill="black"/>
<path d="M12.9239 17.5642C12.5372 17.9507 11.9117 17.955 11.5197 17.5737L10.3767 16.4619C10.0466 16.1408 10.0494 15.6098 10.3827 15.2921C10.7008 14.989 11.2023 14.9939 11.5144 15.3032L12.2265 16.009L15.8452 12.3836C16.1564 12.0719 16.661 12.0706 16.9738 12.3806C17.2884 12.6924 17.2895 13.2006 16.9762 13.5138L12.9239 17.5642Z" fill="black"/>
<path d="M12.2263 5.51332C13.1551 5.51332 13.908 4.76713 13.908 3.84666C13.908 2.92618 13.1551 2.17999 12.2263 2.17999C11.2976 2.17999 10.5447 2.92618 10.5447 3.84666C10.5447 4.76713 11.2976 5.51332 12.2263 5.51332Z" fill="black"/>
<path d="M14.0974 7.27045H7.90151C7.45371 7.27045 7.0907 7.63346 7.0907 8.08126C7.0907 8.52906 7.45371 8.89207 7.90151 8.89207H14.0974C14.5452 8.89207 14.9082 8.52906 14.9082 8.08126C14.9082 7.63346 14.5452 7.27045 14.0974 7.27045Z" fill="black"/>
<path d="M9.96137 10.874H7.90151C7.45371 10.874 7.0907 11.237 7.0907 11.6848C7.0907 12.1326 7.45371 12.4956 7.90151 12.4956H9.96137C10.4092 12.4956 10.7722 12.1326 10.7722 11.6848C10.7722 11.237 10.4092 10.874 9.96137 10.874Z" fill="black"/>
</svg>
