<svg width="24" height="24" viewBox="0 0 24 24" fill="none" xmlns="http://www.w3.org/2000/svg">
<path d="M12.2433 5.51355C13.1637 5.51355 13.9099 4.76738 13.9099 3.84691C13.9099 2.92643 13.1637 2.18024 12.2433 2.18024C11.3228 2.18024 10.5766 2.92643 10.5766 3.84691C10.5766 4.76738 11.3228 5.51355 12.2433 5.51355Z" fill="black"/>
<path d="M16.4324 22H8.009C5.8018 22 4 20.1982 4 17.991V6.00902C4 3.80181 5.8018 2 8.009 2H16.3874C18.5946 2 20.3964 3.80181 20.3964 6.00902V17.991C20.3964 20.1982 18.6396 22 16.4324 22ZM8.009 3.62164C6.7027 3.62164 5.62162 4.70271 5.62162 6.00902V17.991C5.62162 19.2973 6.7027 20.3784 8.009 20.3784H16.3874C17.7387 20.3784 18.8198 19.2973 18.8198 17.991V6.00902C18.8198 4.70271 17.7387 3.62164 16.4324 3.62164H8.009Z" fill="black"/>
<path d="M9.79718 13.0947C9.40666 13.4852 8.7735 13.4852 8.38297 13.0947L7.26576 11.9775C6.95479 11.6665 6.95479 11.1623 7.26576 10.8514C7.57673 10.5404 8.08092 10.5404 8.39189 10.8514L9.09008 11.5495L12.6712 7.96846C12.9821 7.65749 13.4863 7.65749 13.7973 7.96846C14.1083 8.27943 14.1083 8.78361 13.7973 9.09458L9.79718 13.0947Z" fill="black"/>
<path d="M13.4008 16.9235C13.0102 17.3141 12.3771 17.3141 11.9865 16.9235L10.8693 15.8063C10.5584 15.4954 10.5584 14.9912 10.8693 14.6802C11.1803 14.3692 11.6845 14.3692 11.9955 14.6802L12.6937 15.3784L16.2747 11.7973C16.5857 11.4863 17.0899 11.4863 17.4009 11.7973C17.7118 12.1083 17.7118 12.6125 17.4009 12.9234L13.4008 16.9235Z" fill="black"/>
</svg>
