<svg width="24" height="24" viewBox="0 0 24 24" fill="none" xmlns="http://www.w3.org/2000/svg">
<path d="M16.4989 22H8.04509C5.81801 22 4 20.1982 4 17.991V6.00901C4 3.80181 5.81801 2 8.04509 2H16.4989C18.7259 2 20.544 3.80181 20.544 6.00901V17.991C20.544 20.1982 18.7259 22 16.4989 22ZM8.04509 3.62162C6.72702 3.62162 5.63621 4.70271 5.63621 6.00901V17.991C5.63621 19.2973 6.72702 20.3784 8.04509 20.3784H16.4989C17.8169 20.3784 18.9077 19.2973 18.9077 17.991V6.00901C18.9077 4.70271 17.8169 3.62162 16.4989 3.62162H8.04509Z" fill="black"/>
<path d="M12.2263 5.51332C13.1551 5.51332 13.908 4.76713 13.908 3.84666C13.908 2.92618 13.1551 2.17999 12.2263 2.17999C11.2976 2.17999 10.5447 2.92618 10.5447 3.84666C10.5447 4.76713 11.2976 5.51332 12.2263 5.51332Z" fill="black"/>
<path d="M14.0974 7.27045H7.90151C7.45371 7.27045 7.0907 7.63346 7.0907 8.08126C7.0907 8.52906 7.45371 8.89207 7.90151 8.89207H14.0974C14.5452 8.89207 14.9082 8.52906 14.9082 8.08126C14.9082 7.63346 14.5452 7.27045 14.0974 7.27045Z" fill="black"/>
<path d="M9.96137 13.1891H7.90151C7.45371 13.1891 7.0907 13.5521 7.0907 13.9999C7.0907 14.4477 7.45371 14.8108 7.90151 14.8108H9.96137C10.4092 14.8108 10.7722 14.4477 10.7722 13.9999C10.7722 13.5521 10.4092 13.1891 9.96137 13.1891Z" fill="black"/>
<path d="M14.0974 10.2704H7.90151C7.45371 10.2704 7.0907 10.6335 7.0907 11.0813C7.0907 11.5291 7.45371 11.8921 7.90151 11.8921H14.0974C14.5452 11.8921 14.9082 11.5291 14.9082 11.0813C14.9082 10.6335 14.5452 10.2704 14.0974 10.2704Z" fill="black"/>
<path d="M9.96137 15.874H7.90151C7.45371 15.874 7.0907 16.237 7.0907 16.6848C7.0907 17.1326 7.45371 17.4956 7.90151 17.4956H9.96137C10.4092 17.4956 10.7722 17.1326 10.7722 16.6848C10.7722 16.237 10.4092 15.874 9.96137 15.874Z" fill="black"/>
</svg>
