<svg width="24" height="24" viewBox="0 0 24 24" fill="none" xmlns="http://www.w3.org/2000/svg">
<path d="M16.4324 22H8.00901C5.8018 22 4 20.1982 4 17.991V6.009C4 3.80179 5.8018 2 8.00901 2H16.3874C18.5946 2 20.3964 3.80179 20.3964 6.009V17.991C20.3964 20.1982 18.6397 22 16.4324 22ZM8.00901 3.62161C6.7027 3.62161 5.62162 4.70269 5.62162 6.009V17.991C5.62162 19.2973 6.7027 20.3784 8.00901 20.3784H16.3874C17.6937 20.3784 18.7748 19.2973 18.7748 17.991V6.009C18.7748 4.70269 17.6937 3.62161 16.3874 3.62161H8.00901Z" fill="black"/>
<path d="M12.1531 5.51352C13.0736 5.51352 13.8198 4.76732 13.8198 3.84685C13.8198 2.92637 13.0736 2.18018 12.1531 2.18018C11.2326 2.18018 10.4865 2.92637 10.4865 3.84685C10.4865 4.76732 11.2326 5.51352 12.1531 5.51352Z" fill="black"/>
<path d="M8.77477 7.31537H7.87386C7.42606 7.31537 7.06305 7.67838 7.06305 8.12617C7.06305 8.57397 7.42606 8.93698 7.87386 8.93698H8.77477C9.22257 8.93698 9.58558 8.57397 9.58558 8.12617C9.58558 7.67838 9.22257 7.31537 8.77477 7.31537Z" fill="black"/>
<path d="M8.86485 10.6487H7.87387C7.42607 10.6487 7.06305 11.0117 7.06305 11.4595C7.06305 11.9073 7.42607 12.2703 7.87387 12.2703H8.86485C9.31266 12.2703 9.67567 11.9073 9.67567 11.4595C9.67567 11.0117 9.31266 10.6487 8.86485 10.6487Z" fill="black"/>
<path d="M8.86485 17.2702H7.87387C7.42607 17.2702 7.06305 17.6332 7.06305 18.081C7.06305 18.5288 7.42607 18.8918 7.87387 18.8918H8.86485C9.31266 18.8918 9.67567 18.5288 9.67567 18.081C9.67567 17.6332 9.31266 17.2702 8.86485 17.2702Z" fill="black"/>
<path d="M8.86487 13.982H7.87386C7.42606 13.982 7.06305 14.345 7.06305 14.7928C7.06305 15.2406 7.42606 15.6036 7.87386 15.6036H8.86487C9.31266 15.6036 9.67567 15.2406 9.67567 14.7928C9.67567 14.345 9.31266 13.982 8.86487 13.982Z" fill="black"/>
<path d="M15.1712 12.946V9.38747C15.1712 8.93967 14.8082 8.57666 14.3604 8.57666C13.9126 8.57666 13.5496 8.93967 13.5496 9.38747V12.946C13.5496 13.3938 13.9126 13.7568 14.3604 13.7568C14.8082 13.7568 15.1712 13.3938 15.1712 12.946Z" fill="black"/>
<path d="M15.1712 16.4145V16.3244C15.1712 15.8766 14.8082 15.5136 14.3604 15.5136C13.9126 15.5136 13.5496 15.8766 13.5496 16.3244V16.4145C13.5496 16.8623 13.9126 17.2253 14.3604 17.2253C14.8082 17.2253 15.1712 16.8623 15.1712 16.4145Z" fill="black"/>
</svg>
