<svg width="24" height="24" viewBox="0 0 24 24" fill="none" xmlns="http://www.w3.org/2000/svg">
<path d="M13.8333 2.8277H9.24992C4.66659 2.8277 2.83325 4.65544 2.83325 9.22478V14.708C2.83325 19.2773 4.66659 21.1051 9.24992 21.1051" stroke="black" stroke-width="1.5" stroke-linecap="round" stroke-linejoin="round"/>
<path d="M21.1667 10.1387V11.9665" stroke="black" stroke-width="1.5" stroke-linecap="round" stroke-linejoin="round"/>
<path d="M21.1666 10.1387H17.4999C14.7499 10.1387 13.8333 9.22485 13.8333 6.48324V2.82776L21.1666 10.1387Z" stroke="black" stroke-width="1.5" stroke-linecap="round" stroke-linejoin="round"/>
<path d="M17.6691 13.7655L12.2058 18.5627C11.9978 18.7453 11.779 19.1154 11.7237 19.391L11.3297 21.3202C11.1842 22.0186 11.6613 22.5386 12.3821 22.4825L14.3731 22.3175C14.6509 22.2944 15.0492 22.1227 15.2638 21.9404L20.7271 17.1432C21.67 16.3153 22.1486 15.3182 20.9106 13.9507C19.6725 12.5832 18.612 12.9376 17.6691 13.7655Z" stroke="black" stroke-width="1.4" stroke-miterlimit="10" stroke-linecap="round" stroke-linejoin="round"/>
<path d="M16.886 14.4533C17.2368 16.023 18.3944 17.3016 19.944 17.831" stroke="black" stroke-width="1.4" stroke-miterlimit="10" stroke-linecap="round" stroke-linejoin="round"/>
</svg>
