<svg width="41" height="12" viewBox="0 0 41 12" fill="none" xmlns="http://www.w3.org/2000/svg">
<path d="M32.4473 3.62357L33.9304 2.5285H28.9658V9.10509H33.9304V8.01001H30.3826V6.32656H33.4086V5.23148H30.3826V3.62357H32.4473Z" fill="#2A9E3E"/>
<path d="M25.2191 5.09226H23.495V3.62357H26.2474L27.7307 2.5285H22.0781V9.10509H25.0364C26.6955 9.10509 27.6473 8.35213 27.6473 7.03899C27.6473 5.78368 26.7847 5.09226 25.2191 5.09226ZM24.9725 8.01001H23.495V6.18698H24.9725C25.8719 6.18698 26.2907 6.49185 26.2907 7.0983C26.2903 7.71816 25.847 8.01001 24.9725 8.01001Z" fill="#2A9E3E"/>
<path d="M37.9531 2.5285H35.25V9.10509H36.6668V7.24225H37.9531C39.6779 7.24225 40.7493 6.33375 40.7493 4.88212C40.7493 3.43046 39.6782 2.5285 37.9531 2.5285ZM37.9227 6.14717H36.6668V3.62357H37.9227C38.8304 3.62357 39.3303 4.07166 39.3303 4.88538C39.3303 5.69907 38.8307 6.14717 37.9227 6.14717Z" fill="#2A9E3E"/>
<path d="M19.6464 7.65996C19.2832 7.86073 18.86 7.96702 18.4235 7.96702C17.146 7.96702 16.2192 7.05387 16.2192 5.79571C16.2192 4.53752 17.1464 3.62434 18.4235 3.62434C18.9066 3.62434 19.3399 3.76033 19.7121 4.02831L20.7281 3.27824L20.661 3.21929C20.0678 2.69708 19.2749 2.42114 18.3686 2.42114C17.3854 2.42114 16.4929 2.75314 15.8559 3.35636C15.215 3.96286 14.8623 4.81634 14.8623 5.75951C14.8623 6.70703 15.214 7.5732 15.8523 8.19812C16.4928 8.82522 17.3833 9.17057 18.3596 9.17057C19.381 9.17057 20.2729 8.81403 20.8773 8.16486C20.4108 7.82056 19.9605 7.48823 19.9605 7.48823L19.6464 7.65996Z" fill="#2A9E3E"/>
<path d="M10.5565 2.43317C10.8174 2.77057 11.0403 3.13909 11.2182 3.53249L6.18751 7.2458L4.08594 5.92619V4.33869L6.18751 5.65832L10.5565 2.43317Z" fill="#2A9E3E"/>
<path d="M1.9421 5.81403C1.9421 5.74266 1.94392 5.67204 1.94758 5.6014L0.673934 5.53772C0.66955 5.62924 0.666992 5.72145 0.666992 5.81403C0.666992 7.34114 1.28481 8.72368 2.28407 9.72423L3.18725 8.8196C2.41817 8.04962 1.9421 6.98653 1.9421 5.81403Z" fill="url(#paint0_linear_2645_2569)"/>
<path d="M6.18708 1.56148C6.25833 1.56148 6.32887 1.56403 6.39935 1.56733L6.46291 0.290889C6.37158 0.286497 6.27954 0.283936 6.18708 0.283936C4.66245 0.283936 3.2821 0.902757 2.2832 1.90364L3.18637 2.80827C3.9551 2.03831 5.01684 1.56148 6.18708 1.56148Z" fill="url(#paint1_linear_2645_2569)"/>
<path d="M6.18697 10.0668C6.11572 10.0668 6.04521 10.0649 5.9747 10.0613L5.91113 11.337C6.00246 11.3414 6.09454 11.3439 6.18697 11.3439C7.7116 11.3439 9.09195 10.7251 10.0908 9.72424L9.18767 8.81958C8.41894 9.58958 7.35757 10.0668 6.18697 10.0668Z" fill="url(#paint2_linear_2645_2569)"/>
<path d="M8.58098 2.30362L9.65477 1.51097C8.70703 0.743937 7.50096 0.283936 6.1875 0.283936V1.56147C7.07499 1.56147 7.89924 1.83557 8.58098 2.30362Z" fill="url(#paint3_linear_2645_2569)"/>
<path d="M11.7083 5.81399C11.7083 5.47582 11.6779 5.14466 11.6198 4.82336L10.4313 5.70054C10.4324 5.73822 10.4328 5.77594 10.4328 5.81399C10.4328 7.06261 9.8928 8.18717 9.03418 8.96591L9.89095 9.91447C11.0071 8.90298 11.7083 7.44064 11.7083 5.81399Z" fill="#2A9E3E"/>
<path d="M6.18761 10.0667C4.94101 10.0667 3.81825 9.52587 3.04076 8.66589L2.09375 9.52402C3.10397 10.6416 4.56395 11.3439 6.18761 11.3439V10.0667Z" fill="url(#paint4_linear_2645_2569)"/>
<path d="M3.3407 2.66199L2.48393 1.71344C1.36812 2.7253 0.666992 4.18765 0.666992 5.81395H1.94246C1.9421 4.5653 2.4821 3.44074 3.3407 2.66199Z" fill="url(#paint5_linear_2645_2569)"/>
<defs>
<linearGradient id="paint0_linear_2645_2569" x1="2.54186" y1="9.56452" x2="1.14425" y2="5.53117" gradientUnits="userSpaceOnUse">
<stop offset="0.1444" stop-color="#F2E913"/>
<stop offset="0.3037" stop-color="#E7E518"/>
<stop offset="0.5823" stop-color="#CADB26"/>
<stop offset="0.891" stop-color="#A3CD39"/>
</linearGradient>
<linearGradient id="paint1_linear_2645_2569" x1="2.64754" y1="2.12989" x2="6.23826" y2="0.763742" gradientUnits="userSpaceOnUse">
<stop offset="0.0592" stop-color="#0FA8E0"/>
<stop offset="0.5385" stop-color="#0099F9"/>
<stop offset="0.9234" stop-color="#0291EB"/>
</linearGradient>
<linearGradient id="paint2_linear_2645_2569" x1="5.82708" y1="10.5734" x2="9.88656" y2="9.65738" gradientUnits="userSpaceOnUse">
<stop offset="0.1226" stop-color="#A3CD39"/>
<stop offset="0.2846" stop-color="#86C339"/>
<stop offset="0.8693" stop-color="#21A038"/>
</linearGradient>
<linearGradient id="paint3_linear_2645_2569" x1="5.9207" y1="0.7122" x2="9.39193" y2="1.78148" gradientUnits="userSpaceOnUse">
<stop offset="0.0566" stop-color="#0291EB"/>
<stop offset="0.79" stop-color="#0C8ACB"/>
</linearGradient>
<linearGradient id="paint4_linear_2645_2569" x1="2.41358" y1="9.36876" x2="6.1924" y2="10.7784" gradientUnits="userSpaceOnUse">
<stop offset="0.1324" stop-color="#F2E913"/>
<stop offset="0.2977" stop-color="#EBE716"/>
<stop offset="0.5306" stop-color="#D9E01F"/>
<stop offset="0.8023" stop-color="#BBD62D"/>
<stop offset="0.9829" stop-color="#A3CD39"/>
</linearGradient>
<linearGradient id="paint5_linear_2645_2569" x1="1.14175" y1="5.96887" x2="2.66228" y2="2.01981" gradientUnits="userSpaceOnUse">
<stop offset="0.0698" stop-color="#A3CD39"/>
<stop offset="0.2599" stop-color="#81C55F"/>
<stop offset="0.9216" stop-color="#0FA8E0"/>
</linearGradient>
</defs>
</svg>
