<svg width="165" height="32" viewBox="0 0 165 32" fill="none" xmlns="http://www.w3.org/2000/svg">
<path d="M0 10.2767C0 13.8284 2.3469 15.9406 5.86725 15.9406C9.43454 15.9406 11.7345 13.6093 11.7345 10.308C11.7345 6.77203 9.3876 4.65982 5.86725 4.64418C2.29996 4.64418 0 6.97543 0 10.2767ZM2.06527 10.2924C2.06527 8.00807 3.5047 6.45911 5.85161 6.44347C8.35497 6.45911 9.66923 8.14888 9.66923 10.2924C9.66923 12.5923 8.21415 14.1413 5.8829 14.1413C3.37954 14.1257 2.06527 12.4359 2.06527 10.2924Z" fill="#333F48"/>
<path d="M21.7332 15.7685H23.6889V4.81628H21.7332V9.22846H15.7407V4.81628H13.785V15.7685H15.7407V11.0277H21.7332V15.7685Z" fill="#333F48"/>
<path d="M33.8186 15.7685H35.7743V4.81628H27.8575L27.7479 7.08495C27.435 13.3903 26.5432 13.8597 25.7922 13.8597C25.6514 13.8597 25.4793 13.844 25.3228 13.7814V15.7528C25.5575 15.8624 25.8548 15.9093 26.199 15.9093C27.7949 15.9093 29.1874 15.0957 29.6255 7.13189L29.6568 6.61557H33.8186V15.7685Z" fill="#333F48"/>
<path d="M43.9801 4.81628H41.7583L37.3149 15.7685H39.3019L40.3345 13.1712H45.3569L46.4052 15.7685H48.4861L43.9801 4.81628ZM41.0386 11.372L42.8379 6.88155L44.6372 11.372H41.0386Z" fill="#333F48"/>
<path d="M51.9832 4.81628H50.0275V15.7685H52.124L58.1321 7.46046V15.7685H60.0879V4.81628H57.96L51.9832 12.9991V4.81628ZM56.458 2C56.3798 2.54761 56.0355 2.90747 55.1124 2.90747C54.2206 2.90747 53.7982 2.56326 53.7043 2H51.8581C52.0458 3.84623 53.3914 4.28432 55.1437 4.28432C56.9274 4.28432 58.1008 3.53331 58.2729 2H56.458Z" fill="#333F48"/>
<path d="M70.8867 15.7685H72.8424V4.81628H70.8867V9.22846H64.8942V4.81628H62.9385V15.7685H64.8942V11.0277H70.8867V15.7685Z" fill="#333F48"/>
<path d="M75.509 11.9978H79.7021V10.308H75.509V11.9978Z" fill="#333F48"/>
<path d="M90.1655 15.7685H92.1212V4.81628H82.3738V15.7685H84.3295V6.61557H90.1655V15.7685Z" fill="#333F48"/>
<path d="M94.1816 10.2767C94.1816 13.8284 96.5285 15.9406 100.049 15.9406C103.616 15.9406 105.916 13.6093 105.916 10.308C105.916 6.77203 103.569 4.65982 100.049 4.64418C96.4816 4.64418 94.1816 6.97543 94.1816 10.2767ZM96.2469 10.2924C96.2469 8.00807 97.6863 6.45911 100.033 6.44347C102.537 6.45911 103.851 8.14888 103.851 10.2924C103.851 12.5923 102.396 14.1413 100.064 14.1413C97.5611 14.1257 96.2469 12.4359 96.2469 10.2924Z" fill="#333F48"/>
<path d="M106.377 13.9692V17.8025H108.208V15.7685H115.859V17.8025H117.689V13.9692H116.422V4.81628H108.724L108.693 7.08495C108.646 10.4176 108.192 12.4828 107.566 13.9692H106.377ZM110.508 7.13189V6.61557H114.466V13.9692H109.475C110.101 12.2481 110.445 9.99511 110.508 7.13189Z" fill="#333F48"/>
<path d="M127.294 15.7685H129.25V4.81628H119.502V15.7685H121.458V6.61557H127.294V15.7685Z" fill="#333F48"/>
<path d="M134.048 4.81628H132.093V15.7685H134.189L140.197 7.46046V15.7685H142.153V4.81628H140.025L134.048 12.9991V4.81628Z" fill="#333F48"/>
<path d="M154.047 12.1543C153.406 13.2651 152.06 14.1413 150.151 14.1413C147.632 14.0944 146.334 12.4202 146.334 10.2924C146.334 7.99242 147.804 6.44347 150.198 6.44347C151.841 6.44347 153.171 7.38223 153.828 8.35228V5.62987C153.186 5.17614 151.919 4.64418 150.198 4.64418C146.568 4.64418 144.221 6.97543 144.221 10.2767C144.221 13.8127 146.599 15.9249 150.167 15.9406C152.06 15.9406 153.499 15.2209 154.047 14.5637V12.1543Z" fill="#333F48"/>
<path d="M158.022 4.81628H156.066V15.7685H159.524C162.715 15.7685 164.436 14.4855 164.436 11.9352C164.436 9.46315 162.981 8.22711 159.508 8.22711H158.022V4.81628ZM159.68 10.0264C161.589 10.0264 162.418 10.5427 162.418 11.8883C162.418 13.3746 161.479 13.9692 159.649 13.9692H158.022V10.0264H159.68Z" fill="#333F48"/>
<path d="M156.447 22.6236L157.93 21.5285H152.966V28.1051H157.93V27.01H154.383V25.3266H157.409V24.2315H154.383V22.6236H156.447Z" fill="#2A9E3E"/>
<path d="M149.219 24.0923H147.495V22.6236H150.247L151.731 21.5285H146.078V28.1051H149.036C150.696 28.1051 151.647 27.3521 151.647 26.039C151.647 24.7837 150.785 24.0923 149.219 24.0923ZM148.972 27.01H147.495V25.187H148.972C149.872 25.187 150.291 25.4919 150.291 26.0983C150.29 26.7182 149.847 27.01 148.972 27.01Z" fill="#2A9E3E"/>
<path d="M161.953 21.5285H159.25V28.1051H160.667V26.2422H161.953C163.678 26.2422 164.749 25.3337 164.749 23.8821C164.749 22.4305 163.678 21.5285 161.953 21.5285ZM161.923 25.1472H160.667V22.6236H161.923C162.83 22.6236 163.33 23.0717 163.33 23.8854C163.33 24.6991 162.831 25.1472 161.923 25.1472Z" fill="#2A9E3E"/>
<path d="M143.646 26.66C143.283 26.8607 142.86 26.967 142.424 26.967C141.146 26.967 140.219 26.0539 140.219 24.7957C140.219 23.5375 141.146 22.6243 142.424 22.6243C142.907 22.6243 143.34 22.7603 143.712 23.0283L144.728 22.2782L144.661 22.2193C144.068 21.6971 143.275 21.4211 142.369 21.4211C141.385 21.4211 140.493 21.7531 139.856 22.3564C139.215 22.9629 138.862 23.8163 138.862 24.7595C138.862 25.707 139.214 26.5732 139.852 27.1981C140.493 27.8252 141.383 28.1706 142.36 28.1706C143.381 28.1706 144.273 27.814 144.877 27.1649C144.411 26.8206 143.961 26.4882 143.961 26.4882L143.646 26.66Z" fill="#2A9E3E"/>
<path d="M134.556 21.4332C134.817 21.7706 135.04 22.1391 135.218 22.5325L130.188 26.2458L128.086 24.9262V23.3387L130.188 24.6583L134.556 21.4332Z" fill="#2A9E3E"/>
<path d="M125.942 24.814C125.942 24.7427 125.944 24.672 125.948 24.6014L124.674 24.5377C124.67 24.6292 124.667 24.7215 124.667 24.814C124.667 26.3411 125.285 27.7237 126.284 28.7242L127.187 27.8196C126.418 27.0496 125.942 25.9865 125.942 24.814Z" fill="url(#paint0_linear_1899_28130)"/>
<path d="M130.187 20.5615C130.258 20.5615 130.329 20.564 130.399 20.5673L130.463 19.2909C130.372 19.2865 130.28 19.2839 130.187 19.2839C128.662 19.2839 127.282 19.9028 126.283 20.9036L127.186 21.8083C127.955 21.0383 129.017 20.5615 130.187 20.5615Z" fill="url(#paint1_linear_1899_28130)"/>
<path d="M130.187 29.0668C130.116 29.0668 130.045 29.0649 129.975 29.0613L129.911 30.337C130.002 30.3414 130.095 30.3439 130.187 30.3439C131.712 30.3439 133.092 29.7251 134.091 28.7242L133.188 27.8196C132.419 28.5896 131.358 29.0668 130.187 29.0668Z" fill="url(#paint2_linear_1899_28130)"/>
<path d="M132.581 21.3036L133.655 20.511C132.707 19.7439 131.501 19.2839 130.188 19.2839V20.5615C131.075 20.5615 131.899 20.8356 132.581 21.3036Z" fill="url(#paint3_linear_1899_28130)"/>
<path d="M135.708 24.814C135.708 24.4758 135.678 24.1447 135.62 23.8234L134.431 24.7005C134.432 24.7382 134.433 24.7759 134.433 24.814C134.433 26.0626 133.893 27.1872 133.034 27.9659L133.891 28.9145C135.007 27.903 135.708 26.4406 135.708 24.814Z" fill="#2A9E3E"/>
<path d="M130.188 29.0667C128.941 29.0667 127.818 28.5259 127.041 27.6659L126.094 28.524C127.104 29.6416 128.564 30.3439 130.188 30.3439V29.0667Z" fill="url(#paint4_linear_1899_28130)"/>
<path d="M127.341 21.662L126.484 20.7134C125.368 21.7253 124.667 23.1877 124.667 24.8139H125.942C125.942 23.5653 126.482 22.4407 127.341 21.662Z" fill="url(#paint5_linear_1899_28130)"/>
<defs>
<linearGradient id="paint0_linear_1899_28130" x1="126.542" y1="28.5645" x2="125.144" y2="24.5312" gradientUnits="userSpaceOnUse">
<stop offset="0.1444" stop-color="#F2E913"/>
<stop offset="0.3037" stop-color="#E7E518"/>
<stop offset="0.5823" stop-color="#CADB26"/>
<stop offset="0.891" stop-color="#A3CD39"/>
</linearGradient>
<linearGradient id="paint1_linear_1899_28130" x1="126.648" y1="21.1299" x2="130.238" y2="19.7637" gradientUnits="userSpaceOnUse">
<stop offset="0.0592" stop-color="#0FA8E0"/>
<stop offset="0.5385" stop-color="#0099F9"/>
<stop offset="0.9234" stop-color="#0291EB"/>
</linearGradient>
<linearGradient id="paint2_linear_1899_28130" x1="129.827" y1="29.5734" x2="133.887" y2="28.6574" gradientUnits="userSpaceOnUse">
<stop offset="0.1226" stop-color="#A3CD39"/>
<stop offset="0.2846" stop-color="#86C339"/>
<stop offset="0.8693" stop-color="#21A038"/>
</linearGradient>
<linearGradient id="paint3_linear_1899_28130" x1="129.921" y1="19.7122" x2="133.392" y2="20.7815" gradientUnits="userSpaceOnUse">
<stop offset="0.0566" stop-color="#0291EB"/>
<stop offset="0.79" stop-color="#0C8ACB"/>
</linearGradient>
<linearGradient id="paint4_linear_1899_28130" x1="126.414" y1="28.3688" x2="130.192" y2="29.7784" gradientUnits="userSpaceOnUse">
<stop offset="0.1324" stop-color="#F2E913"/>
<stop offset="0.2977" stop-color="#EBE716"/>
<stop offset="0.5306" stop-color="#D9E01F"/>
<stop offset="0.8023" stop-color="#BBD62D"/>
<stop offset="0.9829" stop-color="#A3CD39"/>
</linearGradient>
<linearGradient id="paint5_linear_1899_28130" x1="125.142" y1="24.9689" x2="126.662" y2="21.0198" gradientUnits="userSpaceOnUse">
<stop offset="0.0698" stop-color="#A3CD39"/>
<stop offset="0.2599" stop-color="#81C55F"/>
<stop offset="0.9216" stop-color="#0FA8E0"/>
</linearGradient>
</defs>
</svg>
