<svg width="165" height="16" viewBox="0 0 165 16" fill="none" xmlns="http://www.w3.org/2000/svg">
<path d="M0 8.27674C0 11.8284 2.3469 13.9406 5.86725 13.9406C9.43454 13.9406 11.7345 11.6093 11.7345 8.30803C11.7345 4.77203 9.3876 2.65982 5.86725 2.64418C2.29996 2.64418 0 4.97543 0 8.27674ZM2.06527 8.29238C2.06527 6.00807 3.5047 4.45911 5.85161 4.44347C8.35497 4.45911 9.66923 6.14888 9.66923 8.29238C9.66923 10.5923 8.21415 12.1413 5.8829 12.1413C3.37954 12.1257 2.06527 10.4359 2.06527 8.29238Z" fill="#333F48"/>
<path d="M21.7332 13.7685H23.6889V2.81628H21.7332V7.22846H15.7407V2.81628H13.785V13.7685H15.7407V9.02775H21.7332V13.7685Z" fill="#333F48"/>
<path d="M33.8186 13.7685H35.7743V2.81628H27.8575L27.7479 5.08495C27.435 11.3903 26.5432 11.8597 25.7922 11.8597C25.6514 11.8597 25.4793 11.844 25.3228 11.7814V13.7528C25.5575 13.8624 25.8548 13.9093 26.199 13.9093C27.7949 13.9093 29.1874 13.0957 29.6255 5.13189L29.6568 4.61557H33.8186V13.7685Z" fill="#333F48"/>
<path d="M43.9801 2.81628H41.7583L37.3149 13.7685H39.3019L40.3345 11.1712H45.3569L46.4052 13.7685H48.4861L43.9801 2.81628ZM41.0386 9.37196L42.8379 4.88156L44.6372 9.37196H41.0386Z" fill="#333F48"/>
<path d="M51.9832 2.81628H50.0275V13.7685H52.1241L58.1321 5.46046V13.7685H60.0879V2.81628H57.96L51.9832 10.9991V2.81628ZM56.458 0C56.3798 0.547611 56.0355 0.907469 55.1124 0.907469C54.2206 0.907469 53.7982 0.563256 53.7043 0H51.8581C52.0458 1.84623 53.3914 2.28432 55.1437 2.28432C56.9274 2.28432 58.1008 1.53331 58.2729 0H56.458Z" fill="#333F48"/>
<path d="M70.8867 13.7685H72.8424V2.81628H70.8867V7.22846H64.8942V2.81628H62.9385V13.7685H64.8942V9.02775H70.8867V13.7685Z" fill="#333F48"/>
<path d="M75.509 9.9978H79.7021V8.30803H75.509V9.9978Z" fill="#333F48"/>
<path d="M90.1655 13.7685H92.1212V2.81628H82.3738V13.7685H84.3295V4.61557H90.1655V13.7685Z" fill="#333F48"/>
<path d="M94.1816 8.27674C94.1816 11.8284 96.5285 13.9406 100.049 13.9406C103.616 13.9406 105.916 11.6093 105.916 8.30803C105.916 4.77203 103.569 2.65982 100.049 2.64418C96.4816 2.64418 94.1816 4.97543 94.1816 8.27674ZM96.2469 8.29238C96.2469 6.00807 97.6863 4.45911 100.033 4.44347C102.537 4.45911 103.851 6.14888 103.851 8.29238C103.851 10.5923 102.396 12.1413 100.064 12.1413C97.5611 12.1257 96.2469 10.4359 96.2469 8.29238Z" fill="#333F48"/>
<path d="M106.377 11.9692V15.8025H108.208V13.7685H115.859V15.8025H117.689V11.9692H116.422V2.81628H108.724L108.693 5.08495C108.646 8.41755 108.192 10.4828 107.566 11.9692H106.377ZM110.508 5.13189V4.61557H114.466V11.9692H109.475C110.101 10.2481 110.445 7.99511 110.508 5.13189Z" fill="#333F48"/>
<path d="M127.294 13.7685H129.25V2.81628H119.502V13.7685H121.458V4.61557H127.294V13.7685Z" fill="#333F48"/>
<path d="M134.048 2.81628H132.093V13.7685H134.189L140.197 5.46046V13.7685H142.153V2.81628H140.025L134.048 10.9991V2.81628Z" fill="#333F48"/>
<path d="M154.047 10.1543C153.406 11.2651 152.06 12.1413 150.151 12.1413C147.632 12.0944 146.334 10.4202 146.334 8.29238C146.334 5.99242 147.804 4.44347 150.198 4.44347C151.841 4.44347 153.171 5.38223 153.828 6.35228V3.62987C153.186 3.17614 151.919 2.64418 150.198 2.64418C146.568 2.64418 144.221 4.97543 144.221 8.27674C144.221 11.8127 146.599 13.9249 150.167 13.9406C152.06 13.9406 153.499 13.2209 154.047 12.5637V10.1543Z" fill="#333F48"/>
<path d="M158.022 2.81628H156.066V13.7685H159.524C162.715 13.7685 164.436 12.4855 164.436 9.93521C164.436 7.46315 162.981 6.22711 159.508 6.22711H158.022V2.81628ZM159.68 8.0264C161.589 8.0264 162.418 8.54272 162.418 9.88828C162.418 11.3746 161.479 11.9692 159.649 11.9692H158.022V8.0264H159.68Z" fill="#333F48"/>
</svg>
